<mxfile host="app.diagrams.net" modified="2024-07-09T17:07:43.705Z" agent="Mozilla/5.0 (Macintosh; Intel Mac OS X 10_15_7) AppleWebKit/537.36 (KHTML, like Gecko) Chrome/126.0.0.0 Safari/537.36" etag="z6RUp22hRXayz41tPJ7X" version="24.6.4" type="github">
  <diagram name="Page-1" id="p6LWnX2_tEznEl7SBCqp">
    <mxGraphModel dx="954" dy="581" grid="1" gridSize="10" guides="1" tooltips="1" connect="1" arrows="1" fold="1" page="1" pageScale="1" pageWidth="827" pageHeight="1169" math="0" shadow="0">
      <root>
        <mxCell id="0" />
        <mxCell id="1" parent="0" />
        <mxCell id="JM4TM6LaWlTP2aJV0rqm-3" value="" style="edgeStyle=orthogonalEdgeStyle;rounded=0;orthogonalLoop=1;jettySize=auto;html=1;" edge="1" parent="1" source="JM4TM6LaWlTP2aJV0rqm-1" target="JM4TM6LaWlTP2aJV0rqm-2">
          <mxGeometry relative="1" as="geometry" />
        </mxCell>
        <mxCell id="JM4TM6LaWlTP2aJV0rqm-1" value="1" style="ellipse;whiteSpace=wrap;html=1;aspect=fixed;" vertex="1" parent="1">
          <mxGeometry x="190" y="110" width="80" height="80" as="geometry" />
        </mxCell>
        <mxCell id="JM4TM6LaWlTP2aJV0rqm-5" value="" style="edgeStyle=orthogonalEdgeStyle;rounded=0;orthogonalLoop=1;jettySize=auto;html=1;" edge="1" parent="1" source="JM4TM6LaWlTP2aJV0rqm-2" target="JM4TM6LaWlTP2aJV0rqm-4">
          <mxGeometry relative="1" as="geometry" />
        </mxCell>
        <mxCell id="JM4TM6LaWlTP2aJV0rqm-2" value="2" style="ellipse;whiteSpace=wrap;html=1;aspect=fixed;" vertex="1" parent="1">
          <mxGeometry x="350" y="110" width="80" height="80" as="geometry" />
        </mxCell>
        <mxCell id="JM4TM6LaWlTP2aJV0rqm-7" value="" style="edgeStyle=orthogonalEdgeStyle;rounded=0;orthogonalLoop=1;jettySize=auto;html=1;" edge="1" parent="1" source="JM4TM6LaWlTP2aJV0rqm-4" target="JM4TM6LaWlTP2aJV0rqm-6">
          <mxGeometry relative="1" as="geometry" />
        </mxCell>
        <mxCell id="JM4TM6LaWlTP2aJV0rqm-4" value="3" style="whiteSpace=wrap;html=1;" vertex="1" parent="1">
          <mxGeometry x="600" y="120" width="120" height="60" as="geometry" />
        </mxCell>
        <mxCell id="JM4TM6LaWlTP2aJV0rqm-9" value="" style="edgeStyle=orthogonalEdgeStyle;rounded=0;orthogonalLoop=1;jettySize=auto;html=1;" edge="1" parent="1" source="JM4TM6LaWlTP2aJV0rqm-6" target="JM4TM6LaWlTP2aJV0rqm-8">
          <mxGeometry relative="1" as="geometry" />
        </mxCell>
        <mxCell id="JM4TM6LaWlTP2aJV0rqm-6" value="4" style="whiteSpace=wrap;html=1;" vertex="1" parent="1">
          <mxGeometry x="570" y="300" width="120" height="60" as="geometry" />
        </mxCell>
        <mxCell id="JM4TM6LaWlTP2aJV0rqm-11" value="" style="edgeStyle=orthogonalEdgeStyle;rounded=0;orthogonalLoop=1;jettySize=auto;html=1;" edge="1" parent="1" source="JM4TM6LaWlTP2aJV0rqm-8" target="JM4TM6LaWlTP2aJV0rqm-10">
          <mxGeometry relative="1" as="geometry" />
        </mxCell>
        <mxCell id="JM4TM6LaWlTP2aJV0rqm-8" value="5" style="ellipse;shape=cloud;whiteSpace=wrap;html=1;" vertex="1" parent="1">
          <mxGeometry x="570" y="430" width="120" height="80" as="geometry" />
        </mxCell>
        <mxCell id="JM4TM6LaWlTP2aJV0rqm-13" value="" style="edgeStyle=orthogonalEdgeStyle;rounded=0;orthogonalLoop=1;jettySize=auto;html=1;" edge="1" parent="1" source="JM4TM6LaWlTP2aJV0rqm-10" target="JM4TM6LaWlTP2aJV0rqm-12">
          <mxGeometry relative="1" as="geometry" />
        </mxCell>
        <mxCell id="JM4TM6LaWlTP2aJV0rqm-10" value="6" style="shape=parallelogram;perimeter=parallelogramPerimeter;whiteSpace=wrap;html=1;fixedSize=1;" vertex="1" parent="1">
          <mxGeometry x="370" y="440" width="120" height="60" as="geometry" />
        </mxCell>
        <mxCell id="JM4TM6LaWlTP2aJV0rqm-15" value="" style="edgeStyle=orthogonalEdgeStyle;rounded=0;orthogonalLoop=1;jettySize=auto;html=1;" edge="1" parent="1" source="JM4TM6LaWlTP2aJV0rqm-12" target="JM4TM6LaWlTP2aJV0rqm-14">
          <mxGeometry relative="1" as="geometry" />
        </mxCell>
        <mxCell id="JM4TM6LaWlTP2aJV0rqm-12" value="7" style="rounded=1;whiteSpace=wrap;html=1;" vertex="1" parent="1">
          <mxGeometry x="350" y="290" width="120" height="60" as="geometry" />
        </mxCell>
        <mxCell id="JM4TM6LaWlTP2aJV0rqm-17" style="edgeStyle=orthogonalEdgeStyle;rounded=0;orthogonalLoop=1;jettySize=auto;html=1;exitX=0.5;exitY=0;exitDx=0;exitDy=0;entryX=0;entryY=1;entryDx=0;entryDy=0;" edge="1" parent="1" source="JM4TM6LaWlTP2aJV0rqm-14" target="JM4TM6LaWlTP2aJV0rqm-1">
          <mxGeometry relative="1" as="geometry" />
        </mxCell>
        <mxCell id="JM4TM6LaWlTP2aJV0rqm-14" value="8" style="shape=step;perimeter=stepPerimeter;whiteSpace=wrap;html=1;fixedSize=1;rounded=1;" vertex="1" parent="1">
          <mxGeometry x="110" y="270" width="130" height="80" as="geometry" />
        </mxCell>
      </root>
    </mxGraphModel>
  </diagram>
</mxfile>
